HIERARCHY
ROOT Hips
{
  OFFSET 0 0 0
  CHANNELS 6 Xposition Yposition Zposition Zrotation Yrotation Xrotation
  JOINT LeftThigh
  {
    OFFSET 8.409438 0 -5.917753
    CHANNELS 3 Zrotation Yrotation Xrotation
    JOINT LeftLeg
    {
      OFFSET 0 0 -42.358652
      CHANNELS 3 Zrotation Yrotation Xrotation
      JOINT LeftFoot
      {
        OFFSET 0 0 -39.357303
        CHANNELS 3 Zrotation Yrotation Xrotation
      }
    }
  }
  JOINT RightThigh
  {
    OFFSET -8.409438 0 -5.917753
    CHANNELS 3 Zrotation Yrotation Xrotation
    JOINT RightLeg
    {
      OFFSET 0 0 -42.358652
      CHANNELS 3 Zrotation Yrotation Xrotation
      JOINT RightFoot
      {
        OFFSET 0 0 -39.357303
        CHANNELS 3 Zrotation Yrotation Xrotation
      }
    }
  }
  JOINT SpineLow
  {
    OFFSET 0 0 4.719101
    CHANNELS 3 Zrotation Yrotation Xrotation
    JOINT SpineMid
    {
      OFFSET 0 0 12.899191
      CHANNELS 3 Zrotation Yrotation Xrotation
      JOINT Chest
      {
        OFFSET 0 0 12.899191
        CHANNELS 3 Zrotation Yrotation Xrotation
        JOINT LeftShoulder
        {
          OFFSET 7.550562 1.41573 9.438202
          CHANNELS 3 Zrotation Yrotation Xrotation
          JOINT LeftArm
          {
            OFFSET 9.155056 0 4.247191
            CHANNELS 3 Zrotation Yrotation Xrotation
            JOINT LeftForearm
            {
              OFFSET 0 0 25.771955
              CHANNELS 3 Zrotation Yrotation Xrotation
              JOINT LeftHand
              {
                OFFSET 0 0 25.197169
                CHANNELS 3 Zrotation Yrotation Xrotation
              }
            }
          }
        }
        JOINT RightShoulder
        {
          OFFSET -7.550562 1.41573 9.438202
          CHANNELS 3 Zrotation Yrotation Xrotation
          JOINT RightArm
          {
            OFFSET -9.155056 0 4.247191
            CHANNELS 3 Zrotation Yrotation Xrotation
            JOINT RightForearm
            {
              OFFSET 0 0 -25.771955
              CHANNELS 3 Zrotation Yrotation Xrotation
              JOINT RightHand
              {
                OFFSET 0 0 -25.197169
                CHANNELS 3 Zrotation Yrotation Xrotation
              }
            }
          }
        }
        JOINT Neck
        {
          OFFSET 0 0 15.101124
          CHANNELS 3 Zrotation Yrotation Xrotation
          JOINT Head
          {
            OFFSET 0 0 11.325843
            CHANNELS 3 Zrotation Yrotation Xrotation
            End Site
            {
              OFFSET 0 0 14.157303
            }
          }
        }
      }
    }
  }
}
MOTION
Frames: 17
Frame Time: 0.0
0.0  89.887642  0.0  0.976232  5.170372  -96.357934  -1.372571  -14.150407  -1.002116  -8.067886  7.391814  21.846007  -1.737373  0.922116  0.054386  -27.166924  11.910682  -5.989124  -17.792157  12.181876  15.367322  8.939323  3.238299  -1.700029  4.435274  -0.822583  1.692874  12.064395  -2.548283  4.460875  12.064394  -2.548283  4.460875  -15.420924  0.556545  -8.871289  157.38869  38.276872  -140.988818  9.784124  -7.510573  27.97477  104.927929  -8.125972  8.473457  -1.306542  -14.458073  8.327949  97.960837  29.751571  23.406965  9.828966  -15.159924  -100.586323  57.892133  7.336319  1.315939  -30.927333  0.238076  1.683525  -23.196332  0.093519  1.278607  
0.0  89.887642  0.0  1.276647  -0.011852  -96.379069  0.369766  -14.191031  -0.387236  -7.097262  7.738511  22.16753  -1.190908  1.026897  0.136121  -25.486842  10.947272  -7.886354  -16.067627  12.551679  16.848551  9.23339  3.218544  -1.570012  4.586106  -0.788167  1.644638  12.480608  -2.455471  4.329558  12.480608  -2.45547  4.329558  -13.103593  0.112671  -6.698151  162.141706  35.410609  -143.083938  4.437152  -10.341535  35.136366  101.309062  -7.602474  11.958234  -2.174123  -13.965616  9.562489  96.256884  30.806113  23.755218  8.951031  -14.779268  -100.724699  59.261942  6.05228  1.467225  -28.736022  0.718384  2.062447  -21.554447  0.442858  1.584807  
0.0  89.887642  0.0  1.702324  -5.669821  -96.33639  2.270927  -14.200031  -0.016664  -5.83891  8.296027  22.829893  -0.665989  1.130195  0.135143  -23.228656  10.151311  -10.170784  -13.98673  12.684119  18.9237  9.493865  3.27739  -1.475194  4.728385  -0.732209  1.542779  12.876495  -2.292565  4.057179  12.876495  -2.292565  4.057179  -10.220985  0.008724  -3.90991  165.981857  32.771622  -145.897064  -3.50186  -11.954027  43.573924  96.146905  -6.912128  16.467811  -3.524926  -13.161872  11.033407  94.079009  31.898386  23.75741  8.226617  -14.542611  -100.999776  60.832111  4.586194  1.524588  -26.133835  1.294182  2.507032  -19.60523  0.865218  1.93982  
0.0  89.887642  0.0  2.083106  -11.786969  -96.365387  4.252278  -14.329981  0.2871  -4.259542  8.980004  23.789541  -0.120434  1.242963  0.175877  -20.126891  9.160795  -12.534661  -11.944098  12.8042  21.36192  9.891498  3.339105  -1.356722  4.942865  -0.659862  1.339348  13.473505  -2.06735  3.509952  13.473504  -2.06735  3.509952  -7.560236  -0.118866  -0.337124  169.80306  30.188123  -149.406744  -13.099266  -10.749357  52.68092  89.800141  -6.133095  22.315807  -6.114764  -12.350835  13.317347  91.903058  33.163298  23.684299  7.39917  -14.377879  -100.828169  63.311067  3.432853  1.098075  -23.469225  1.781073  3.235634  -17.6105  1.21362  2.499383  
0.0  89.887642  0.0  2.519433  -17.907841  -96.481082  5.969738  -14.533035  0.456678  -2.36896  9.923742  25.190701  0.308305  1.298606  0.116083  -16.707326  8.328408  -14.854393  -9.980267  12.895126  23.968849  10.222189  3.202303  -1.298357  5.221728  -0.415151  1.25705  14.248973  -1.398859  3.328734  14.248973  -1.398859  3.328733  -6.132746  -0.948457  1.939457  174.305053  27.27442  -154.415415  -22.443682  -6.079515  61.694446  82.341694  -4.880997  29.472847  -9.558906  -12.08323  14.73623  89.783336  34.580111  23.425802  6.644223  -13.330701  -100.527707  66.8927  2.794178  1.241511  -20.941672  1.324228  3.595238  -15.713982  0.871146  2.745549  
0.0  89.887642  0.0  3.007378  -23.841679  -96.841285  7.270808  -14.867704  0.568368  0.013194  11.085053  27.104598  0.609808  1.28267  -0.056198  -12.979412  7.906667  -16.535209  -9.658288  13.023783  25.990927  10.760042  3.150556  -1.168139  5.312011  -0.316309  1.22971  14.500711  -1.12871  3.27372  14.50071  -1.12871  3.273719  -5.18231  0.004553  3.950237  -179.216043  25.148092  -160.439484  -30.605573  1.313546  69.957205  72.737488  -0.278876  38.647598  -12.195627  -10.525262  16.097098  87.743804  36.136806  23.513614  3.608087  -11.545224  -99.346389  72.566302  2.232942  0.883882  -17.881061  1.222446  3.562164  -13.417947  0.813422  2.710064  
0.0  89.887642  0.0  3.36849  -29.211806  -97.634063  7.852927  -15.697096  0.844481  3.265672  12.585184  29.674084  0.798342  1.221572  -0.28211  -9.308055  7.898275  -18.279905  -10.577286  13.419358  28.13286  10.539568  2.972295  -0.78717  5.37537  -0.346858  1.140354  14.67436  -1.195049  3.022837  14.67436  -1.195049  3.022837  -5.297544  2.339254  8.219077  -172.076374  24.273604  -164.860396  -35.426263  13.441949  73.590419  64.725091  5.043181  46.287505  -15.093643  -8.584292  18.208255  85.477503  38.535326  24.029332  -0.782294  -7.253661  -97.258067  78.170208  1.054838  1.792813  -15.088045  1.263121  3.807063  -11.32396  0.853978  2.888468  
0.0  89.887642  0.0  4.287654  -30.796321  -99.257676  4.860581  -16.164226  1.409336  7.00445  14.537114  32.807499  1.036259  1.134644  -0.438549  -10.854693  8.461955  -18.850292  -11.888112  14.378707  28.50985  10.724166  2.959795  -0.44222  4.715308  -0.210563  1.22496  12.87493  -0.81103  3.292897  12.87493  -0.81103  3.292897  -3.852272  4.152568  10.792454  -168.439572  22.632858  -170.016552  -41.779706  23.105283  74.692794  56.84693  13.132016  54.44159  -16.058799  -7.423652  19.720667  83.527743  41.699679  25.599422  -6.493957  0.144053  -94.488207  80.542192  -2.279495  2.982615  -11.775755  0.831546  3.750588  -8.837157  0.551645  2.830164  
0.0  89.887642  0.0  4.832824  -32.204328  -100.335505  2.107614  -17.000889  1.511922  10.833988  16.416921  36.094014  1.518255  1.188982  -0.46634  -15.816108  8.241327  -19.479515  -10.461816  14.609535  27.912752  11.376445  3.000975  -0.334991  4.073997  3.13E-4  1.315141  11.132126  -0.220195  3.583157  11.132125  -0.220195  3.583157  -2.852552  5.653605  13.741666  -167.403431  20.231177  -174.093049  -51.027226  31.292906  71.674191  52.146284  20.045803  62.84972  -16.034016  -7.597427  20.67569  82.140536  45.525255  28.251976  -10.816755  8.779259  -90.661581  80.636495  -6.692116  3.157141  -8.64232  -0.056333  3.267141  -6.481659  -0.088481  2.450139  
0.0  89.887642  0.0  5.056836  -33.648981  -101.642923  0.420467  -17.519169  2.114249  13.726209  17.391759  38.945698  1.876702  1.31629  -0.334565  -21.189485  8.243288  -19.080531  -7.582509  13.650003  27.037179  12.651728  2.751959  -0.185198  3.457027  0.173368  1.477363  9.45602  0.261751  4.053512  9.45602  0.261751  4.053512  1.064828  5.7399  17.567724  -171.802206  16.799898  -175.528149  -62.391351  35.009073  67.994081  51.419764  13.82175  71.658528  -14.516679  -8.847615  20.867891  81.507358  49.230402  31.825751  -11.622512  15.864046  -85.160839  81.686703  -11.172188  2.089607  -5.590757  -0.891425  2.619591  -4.189254  -0.692617  1.956693  
0.0  89.887642  0.0  5.406194  -35.072064  -102.432716  1.845973  -17.024197  1.663716  13.943422  17.324522  41.310791  2.113797  1.323625  -0.197607  -25.427755  8.551349  -18.804331  -3.040252  11.218777  26.561549  12.623908  2.533216  -8.74E-4  3.400478  0.270142  1.577611  9.30812  0.514923  4.340464  9.30812  0.514923  4.340464  0.995079  7.082141  19.044288  -173.861552  16.125734  -177.498087  -66.640486  37.478505  68.115164  50.965812  8.351104  64.479195  -14.806138  -10.231432  19.94775  82.753338  52.435563  36.709157  -8.36607  20.362733  -77.143169  84.626128  -14.855094  1.772027  -4.630786  -1.314087  1.961004  -3.468763  -1.000504  1.460829  
0.0  89.887642  0.0  5.944722  -35.804625  -103.723215  5.975505  -16.624558  0.873566  11.120482  17.403466  43.601373  2.049535  1.262858  -0.094979  -26.695042  9.264449  -17.800534  -1.11207  9.724303  26.489752  12.504328  2.203522  -0.338087  3.459509  0.277163  1.709492  9.470559  0.511283  4.701422  9.470559  0.511283  4.701423  -0.129376  7.635332  20.030485  -175.356315  16.781241  -178.966013  -70.101974  40.916568  64.569397  51.436936  10.099716  54.745092  -14.622838  -8.827724  20.646855  83.549536  57.345272  38.98486  -2.454887  22.398953  -66.290335  88.952649  -16.323884  1.907547  -4.485292  -1.139989  1.74211  -3.360641  -0.867841  1.298255  
0.0  89.887642  0.0  6.674071  -36.094316  -105.329434  11.56992  -16.815986  0.168799  6.571024  18.197672  45.597269  1.784497  1.214982  -0.081755  -25.584878  10.407709  -16.5992  -3.170714  8.655614  27.452148  13.791152  2.865794  -1.513121  3.141685  0.163658  1.878401  8.594259  0.202551  5.145717  8.594259  0.202551  5.145717  0.151087  8.52069  19.397479  -176.599062  17.717944  179.603747  -73.818304  43.448974  59.214534  50.945201  10.941379  43.069402  -12.157224  -6.667832  20.782977  86.286114  63.383402  41.258276  7.600592  23.571841  -52.756389  92.493499  -14.800392  -0.247924  -3.289277  0.091976  2.150817  -2.467317  0.057409  1.613662  
0.0  89.887642  0.0  6.894512  -37.207606  -106.337707  16.590149  -18.688906  -0.85979  2.890553  20.222512  47.301934  1.835806  1.285221  0.066058  -21.381619  10.949466  -17.458544  -9.70085  12.7272  29.304855  16.275644  1.950302  -1.265053  2.871001  -0.06857  1.933332  7.836439  -0.416164  5.26794  7.836439  -0.416164  5.26794  0.852746  9.447165  18.743295  -178.355632  17.443613  179.150547  -78.071342  45.276763  55.072946  49.021689  9.837221  36.389  -9.569247  -4.626561  22.21282  93.061885  65.246884  45.149556  17.143296  26.458095  -36.44738  97.672539  -10.258408  -4.81945  -1.921493  1.769669  3.14548  -1.450161  1.31742  2.364515  
0.0  89.887642  0.0  6.561219  -38.084649  -106.790156  19.1185  -20.874458  -1.388757  1.099215  22.198682  48.298433  1.873581  1.365957  0.229814  -17.138826  10.236572  -16.783546  -10.838853  13.151795  30.086847  12.899422  2.852156  -0.31768  2.770752  -0.293284  1.930234  7.545167  -1.020717  5.234946  7.545167  -1.020717  5.234945  0.767287  10.093731  17.967925  -179.539435  17.376705  179.311018  -82.471101  45.42943  50.068395  47.251303  9.344723  34.910156  -7.627435  -4.051396  25.004407  113.260631  63.240401  61.820825  20.861399  25.825506  -21.591891  99.71428  -6.516572  -10.437522  -1.196755  2.9546  4.046331  -0.916992  2.208154  3.039879  
0.0  89.887642  0.0  6.20213  -38.645362  -107.666364  20.272578  -22.416192  -1.145392  -0.169102  23.210698  48.92468  2.075517  1.464432  0.198195  -16.709744  10.212625  -16.500544  -9.804308  13.306655  31.166909  13.285395  2.177291  -0.272831  2.909927  -0.563402  1.863271  7.906864  -1.760314  5.017934  7.906864  -1.760314  5.017934  -0.209857  10.744706  18.165399  -179.777067  18.187408  179.296308  -84.993033  44.935628  46.553668  46.646822  9.27306  35.050302  -6.27922  -4.366704  29.019099  123.926433  62.654099  73.824544  23.009847  21.86218  -11.901139  97.802954  -5.753676  -15.124176  -1.417051  3.901329  5.281165  -1.096235  2.914034  3.968425  
0.0  89.887642  0.0  6.016587  -38.690234  -108.515113  18.185435  -22.067372  0.157797  1.438691  22.265333  49.401162  2.164379  1.474325  0.206985  -18.810672  10.174203  -16.324274  -6.589503  12.373777  32.904452  14.174825  2.316251  -0.777654  3.054008  -0.807666  1.804658  8.285615  -2.429873  4.823877  8.285615  -2.429873  4.823877  -1.579772  11.391385  18.752814  -178.799607  18.42423  179.431933  -82.013931  44.575951  47.989392  46.800174  6.331372  34.084856  -5.158247  -6.128203  32.141765  119.96038  65.06427  76.426878  21.598389  18.293897  -8.446609  92.919322  -8.887137  -16.518173  -2.016807  4.362306  6.047278  -1.555294  3.252205  4.547741  
